# xmcd
#
# Track frame offsets:
#	150
#	20442
#	40318
#	57351
#	77626
#	88934
#	105215
#	124257
#	137107
#	151482
#	172932
#
# Disc length: 2583 seconds
#
# Revision: 1
# Processed by: cddbd v1.5.1PL2 Copyright (c) Steve Scherf et al.
# Submitted via: audiograbber 1.82.02
#
DISCID=870a150b
DTITLE=Lizanne Knott - Under The Burning Sky
DYEAR=2006
DGENRE=Singer/Songwriter
TTITLE0=Under The Burning Sky
TTITLE1=Shadow In This Town
TTITLE2=Salutations
TTITLE3=Waited
TTITLE4=Punky's Dilemma
TTITLE5=Seven Stars
TTITLE6=This Always Will Be
TTITLE7=Crazy People
TTITLE8=A Thousand Words
TTITLE9=Easier
TTITLE10=Angels
EXTD=www.lizanneknott.com
EXTT0=
EXTT1=
EXTT2=
EXTT3=
EXTT4=
EXTT5=
EXTT6=
EXTT7=
EXTT8=
EXTT9=
EXTT10=
PLAYORDER=
